<svg id="圖層_1" data-name="圖層 1" xmlns="http://www.w3.org/2000/svg" viewBox="0 0 519.89 189.37"><defs><style>.cls-1{fill:#3e3a39;}.cls-2{fill:#d4292e;}</style></defs><path class="cls-1" d="M236.11,49.45l2.3-1.2L241,46a3.81,3.81,0,0,1,3.2-.66,29.41,29.41,0,0,1,4.35,1.09,9.37,9.37,0,0,1,2.88,1.26A15.75,15.75,0,0,1,253.77,50l25.59-2.61c2.3,1.52,4.29,2.92,5.95,4.19A12.06,12.06,0,0,1,289,55.88a3.68,3.68,0,0,1,.44,2.29c-.12.65-.66,1.16-1.6,1.52a9.06,9.06,0,0,1-3.71.11,19.09,19.09,0,0,1-3.84-1.09l-4.35,5.78,3.71-.44a94.28,94.28,0,0,1,7.55,5.72q3.72,3.11,4.23,5.18c.17.87-.32,1.62-1.47,2.23l-3.4,1.8V98.71c0,.51-.42,1-1.28,1.47s-1.66.89-2.43,1.26a15.15,15.15,0,0,1-6.52,1.69,8.26,8.26,0,0,1-5.38-2.35L242,103.07a3.32,3.32,0,0,1-2.24,1.09,11.44,11.44,0,0,1-3.13-.65,28,28,0,0,1-4.1-1.91,3.13,3.13,0,0,1-1.79-2.78V82a5.66,5.66,0,0,1-2.37.59,3.91,3.91,0,0,1-2-.92l-.64,2.4a163.07,163.07,0,0,1-7.55,22.18,60.86,60.86,0,0,1-9.47,15.64,23.87,23.87,0,0,1-4.61,3.81,10.32,10.32,0,0,1-5,1.86,2.4,2.4,0,0,1-1.72-.66,6.52,6.52,0,0,1-1.22-1.52,10.08,10.08,0,0,1-.64-6.27c.43-2.44.9-4.92,1.41-7.47a5.22,5.22,0,0,0,0-1.58q-.13-.7-.39-1.8,3.72-.87,7-5a53.32,53.32,0,0,0,6.53-11.12L197.33,85a2.08,2.08,0,0,1-.77-2.62A14.54,14.54,0,0,1,198.87,78a15.8,15.8,0,0,1,2.88-3c1.32-1.13,2.24-1.55,2.75-1.26l4.35,2.4,6.53,4.36,2-7.85a90.53,90.53,0,0,0-9.21-9.26,66.16,66.16,0,0,0-7.68-5.78c-.43-.29-.66-.54-.7-.76s.1-.51.45-.88q2.43-2.71,6.14-6.21c2.47-2.32,4.18-3.49,5.12-3.49,1.7-.07,3.86,1.4,6.46,4.42a61.45,61.45,0,0,1,6.08,8.12,32.24,32.24,0,0,1,2.3,4.47c.6,1.45,1.11,2.87,1.54,4.25a94.53,94.53,0,0,0,7.61-6.76c2.26-2.25,3.56-4.4,3.9-6.43a3.47,3.47,0,0,0-.7-2.83A8.18,8.18,0,0,0,236.11,49.45Zm-4.48,56.24a16,16,0,0,1,6.14,1.63,4.47,4.47,0,0,1,2.43,4.25q0,3.27-3.07,7.58a36.67,36.67,0,0,1-6.53,7.14,8.39,8.39,0,0,1-3.52,1.52,4.73,4.73,0,0,1-3-.54,7.84,7.84,0,0,1-3.91-4.42c-.81-2.07-.74-3.57.2-4.52a32.42,32.42,0,0,1,3.2-3.16,68,68,0,0,0,5.37-5.56c.43-.58.85-1.2,1.28-1.85S231.12,106.41,231.63,105.69Zm9.85,3.48a4.22,4.22,0,0,1,3.65-3.75,7,7,0,0,1,5.82,1.9,10.69,10.69,0,0,1,3.14,5.72,54.26,54.26,0,0,1,1.34,8.34,12.78,12.78,0,0,1-.13,3.22,4.45,4.45,0,0,1-1.41,2.34,8.39,8.39,0,0,1-3.45,1.53,3.37,3.37,0,0,1-3.2-.66,9.11,9.11,0,0,1-1.92-2.61c-.51-1-1.11-2.18-1.79-3.49a42.69,42.69,0,0,0-.07-7.19A12,12,0,0,0,241.48,109.17Zm1.28-26.37,7.93-1-.12-4.25-7.81,1.09Zm0,10.68,8.06-.87V88.9l-8.06.76ZM245.83,68l13.31-1.75,6.78-9.7L252.74,58c-.85,1.52-2,3.27-3.33,5.23S246.86,66.74,245.83,68Zm17.41,57.33-4.1-5.67a14.94,14.94,0,0,0-.51-5.29,46,46,0,0,0-2.56-7,7.27,7.27,0,0,1,2.11-2.51,5.54,5.54,0,0,1,3-.1q5.12.65,7.36,4.25a26.41,26.41,0,0,1,3.26,9,12.71,12.71,0,0,1,.19,5.13,7.26,7.26,0,0,1-2.75,3.7,3.46,3.46,0,0,1-3.26.49A6.36,6.36,0,0,1,263.24,125.31Zm.12-45.24,6.91-.87V75.28l-6.91.76Zm0,11.34,7.17-.76V86.29l-7.17.87Zm8.32,15.8a10.77,10.77,0,0,1,5.06-2.45,8.88,8.88,0,0,1,5.43,1.15,24.35,24.35,0,0,1,5.19,3.76,19.26,19.26,0,0,1,3.77,4.85,11.56,11.56,0,0,1,1.47,5.28,9.24,9.24,0,0,1-1.47,5.18,6.89,6.89,0,0,1-2.11,1.91,5.27,5.27,0,0,1-2.75.81,6.77,6.77,0,0,1-3.9-2.18,43.64,43.64,0,0,1-3.4-3.7,15.88,15.88,0,0,0-1.21-5,22.71,22.71,0,0,0-3-4.8c-.25-.36-.81-1.07-1.66-2.13A5.59,5.59,0,0,1,271.68,107.21Z"/><path class="cls-1" d="M380.42,102.54l.89,2.45,1.1,5.09c.3,1.51.5,2.8.61,3.87a18,18,0,0,1,.06,3.1,8.1,8.1,0,0,1-.83,2.36,10,10,0,0,1-1.61,2.17,6.52,6.52,0,0,1-2.71,1.46,7.19,7.19,0,0,1-2.93,0,14.28,14.28,0,0,1-4.31-1.84,33.08,33.08,0,0,1-4.1-3q-7.29-6-13.94-12.53t-16-16.31q-1.55,1.89-5,6T324,104.29q-4.2,4.75-8.68,9.14a64.89,64.89,0,0,1-8,6.83,19.65,19.65,0,0,1-4.37,2.17,3.61,3.61,0,0,1-2.94-.1q-1.55-.75-2-3.3a15.49,15.49,0,0,1-.28-4.61c.15-2.45.24-4.64.28-6.55a25.69,25.69,0,0,0-.17-4.2,31,31,0,0,0,3.71-2.87c1.14-1,2.34-2.21,3.59-3.53l6.42-6.79a129.63,129.63,0,0,0,11.67-14.32q5.37-7.64,13-19a20.05,20.05,0,0,1,3.43-4.43c1-.81,2.54-1.22,4.76-1.22a9.64,9.64,0,0,1,2.27.19,6.06,6.06,0,0,1,1.93,1.13,33.37,33.37,0,0,1,5.7,5.28,27.07,27.07,0,0,1,4,6.31,6.4,6.4,0,0,1,.33,3.49,3.54,3.54,0,0,1-2,2.54,3.88,3.88,0,0,1-2.49.28,26.93,26.93,0,0,1-2.93-.94l-4.1,6.13q9,9.14,15.38,15.21a101,101,0,0,0,10.84,9.19,15,15,0,0,0,3.43,1.93A8.57,8.57,0,0,0,380.42,102.54Z"/><path class="cls-1" d="M395.79,55.33l32-9.26q1.92-.66,5.63,1.58a17.34,17.34,0,0,1,5,4c1.11,1.74,1.18,3.18.2,4.3a6.87,6.87,0,0,0-1.73,3q9.33-2.94,14.27-4.42c3.28-1,6.27-1.85,8.95-2.61a62.12,62.12,0,0,1,6.4-1.53c1.58-.25,2.63-.2,3.14.16l2.81,2.4,2.69,2.84q1.28,1.41,3.65,4.47T481.14,65a3.08,3.08,0,0,1-.89,1.91c-.6.69-1.24,1.36-1.92,2L476,70.59c-.69.44-1.88.24-3.59-.6a25.92,25.92,0,0,1-4.86-3.1l-5.76,1.63a10.86,10.86,0,0,1,3.27,2.83,6.13,6.13,0,0,1,1.21,3.71v39.46a6.93,6.93,0,0,1-1.85,4.14,23.3,23.3,0,0,1-4,3.92A29,29,0,0,1,449,127.1,113.74,113.74,0,0,1,435,128.47q-4.74-6.43-7-9.7a22.3,22.3,0,0,0-6.46-6,75.28,75.28,0,0,0,10.56.93,37.35,37.35,0,0,0,9.66-1.15,11.25,11.25,0,0,0,4.1-2,4.79,4.79,0,0,0,1.92-2.61V78.33a8.2,8.2,0,0,0-.45-3.11,5.51,5.51,0,0,0-2-2.12l-8.57,2.5.13,23a12.56,12.56,0,0,1-2.75,4.47,9.37,9.37,0,0,1-4.8,2.4,7.28,7.28,0,0,1-3.2-.33c-1.28-.36-1.92-.8-1.92-1.31l-.13-2.83-24.82,6.32a5.94,5.94,0,0,1-1.09,2.4,11.09,11.09,0,0,1-2.37,2.18c-1.62.95-3.65.69-6.08-.76s-3.64-2.91-3.64-4.36V62.85a6.53,6.53,0,0,0-1-3.05,9.56,9.56,0,0,0-2-2.62q3.58-4.57,6.27-5.28C391.18,51.43,393.32,52.57,395.79,55.33Zm3.07,20.06,6.91-2.07V65.79l-6.91,1.86Zm.39,19.72,6.52-1.85V84.54l-6.52,2Zm18.3-25.06,6.52-2,.13-7.74-6.65,1.86Zm.25,19.83,6.27-1.74V79l-6.14,1.86Z"/><path class="cls-1" d="M209.54,155.4a1.05,1.05,0,0,1-.28-.74v-14a1.12,1.12,0,0,1,.28-.76.92.92,0,0,1,.7-.32h8.28a.88.88,0,0,1,.66.3,1,1,0,0,1,.27.71,1,1,0,0,1-.27.7.9.9,0,0,1-.66.28h-7c-.17,0-.25.1-.25.28v4.73h6.53a.85.85,0,0,1,.66.3,1,1,0,0,1,.28.71,1,1,0,0,1-.28.7.87.87,0,0,1-.66.28h-6.53v6.09a1,1,0,0,1-.3.74.93.93,0,0,1-.7.31A.91.91,0,0,1,209.54,155.4Z"/><path class="cls-1" d="M226.84,155.4a1.05,1.05,0,0,1-.28-.74V140.54a1.09,1.09,0,0,1,.28-.75.93.93,0,0,1,1.4,0,1.07,1.07,0,0,1,.3.75v14.12a1,1,0,0,1-.3.74.95.95,0,0,1-1.4,0Z"/><path class="cls-1" d="M236.62,154.73a1.06,1.06,0,0,1-.43-.39,1.08,1.08,0,0,1-.19-.57,1,1,0,0,1,.26-.7.82.82,0,0,1,.64-.29.84.84,0,0,1,.4.09,9.62,9.62,0,0,0,4.2.94q3.7,0,3.7-2.61a1.44,1.44,0,0,0-.47-1.12,2.89,2.89,0,0,0-1.06-.68c-.43-.17-1.13-.39-2.11-.67a19.17,19.17,0,0,1-2.79-.94,4.28,4.28,0,0,1-2-1.47,3.82,3.82,0,0,1-.65-2.25,4.73,4.73,0,0,1,.63-2.4,4.27,4.27,0,0,1,2-1.72,6.91,6.91,0,0,1,2.95-.6,11.47,11.47,0,0,1,4.24.76.93.93,0,0,1,.61.94,1,1,0,0,1-.25.67.77.77,0,0,1-.62.31.82.82,0,0,1-.34-.09,9.82,9.82,0,0,0-3.43-.62,4.82,4.82,0,0,0-2.73.69,2.17,2.17,0,0,0-1,1.9,1.69,1.69,0,0,0,.51,1.3,3.68,3.68,0,0,0,1.18.78,14.49,14.49,0,0,0,2.1.64,17.43,17.43,0,0,1,2.73.87,3.89,3.89,0,0,1,2.51,3.84,4.19,4.19,0,0,1-.68,2.31,4.5,4.5,0,0,1-1.95,1.61,6.76,6.76,0,0,1-2.84.56A11.94,11.94,0,0,1,236.62,154.73Z"/><path class="cls-1" d="M254.74,155.4a1.05,1.05,0,0,1-.28-.74V140.54a1.09,1.09,0,0,1,.28-.75.92.92,0,0,1,.7-.32,1,1,0,0,1,.7.32,1.07,1.07,0,0,1,.3.75v6.07h8v-6.07a1.1,1.1,0,0,1,.29-.75.9.9,0,0,1,.69-.32.94.94,0,0,1,.7.32,1.07,1.07,0,0,1,.3.75v14.12a1,1,0,0,1-.3.74.93.93,0,0,1-.7.31.89.89,0,0,1-.69-.31,1.06,1.06,0,0,1-.29-.74V148.6h-8v6.06a1,1,0,0,1-.3.74.94.94,0,0,1-.7.31A.91.91,0,0,1,254.74,155.4Z"/><path class="cls-1" d="M275.17,155.29a1.08,1.08,0,0,1-.28-.75V140.66a1.12,1.12,0,0,1,.28-.76.9.9,0,0,1,.69-.32h8.54a.87.87,0,0,1,.66.3,1,1,0,0,1,.28.71,1,1,0,0,1-.28.7.88.88,0,0,1-.66.28h-7.28c-.17,0-.25.1-.25.28v4.73h6.76a.85.85,0,0,1,.66.3,1,1,0,0,1,.28.71,1,1,0,0,1-.28.7.87.87,0,0,1-.66.28h-6.76v4.76c0,.18.08.28.25.28h7.28a.89.89,0,0,1,.66.29,1,1,0,0,1,.28.71,1,1,0,0,1-.28.7.89.89,0,0,1-.66.29h-8.54A.93.93,0,0,1,275.17,155.29Z"/><path class="cls-1" d="M303.83,150.3a8.53,8.53,0,0,1,.62,3.31v1a1.06,1.06,0,0,1-.29.74.89.89,0,0,1-.69.31.91.91,0,0,1-.72-.29,1,1,0,0,1-.28-.76V154a11.88,11.88,0,0,0-.19-2.13,3.29,3.29,0,0,0-1-1.77,3,3,0,0,0-2.12-.7h-4.38v5.29a1,1,0,0,1-.3.74.94.94,0,0,1-.7.31.91.91,0,0,1-.7-.31,1.05,1.05,0,0,1-.28-.74v-14a1.12,1.12,0,0,1,.28-.76.92.92,0,0,1,.7-.32h5a6.49,6.49,0,0,1,4.3,1.27,4.21,4.21,0,0,1,1.51,3.4,4.58,4.58,0,0,1-.72,2.52,4.06,4.06,0,0,1-2,1.62A3.15,3.15,0,0,1,303.83,150.3Zm-2.29-3.73a2.54,2.54,0,0,0,1.06-2.16,2.47,2.47,0,0,0-1-2.12,5.41,5.41,0,0,0-3.12-.69h-3.47c-.17,0-.25.09-.25.27v5.49h3.83A4.71,4.71,0,0,0,301.54,146.57Z"/><path class="cls-1" d="M312.63,155.4a1.06,1.06,0,0,1-.29-.74V141a1.56,1.56,0,0,1,.41-1.07,1.29,1.29,0,0,1,1-.46h.7a1.29,1.29,0,0,1,.76.26,1.76,1.76,0,0,1,.56.72l4.64,12.45c0,.1.1.16.17.16s.13-.06.17-.16l4.64-12.45a1.74,1.74,0,0,1,.55-.72,1.32,1.32,0,0,1,.77-.26h.7a1.29,1.29,0,0,1,1,.46,1.52,1.52,0,0,1,.42,1.07v13.66a1.06,1.06,0,0,1-.29.74.89.89,0,0,1-.69.31,1,1,0,0,1-.71-.31,1.06,1.06,0,0,1-.29-.74V142.58c0-.14,0-.21-.13-.21s-.11,0-.15.14L322,154.73a1.6,1.6,0,0,1-.55.71,1.42,1.42,0,0,1-.83.27,1.4,1.4,0,0,1-.83-.27,1.62,1.62,0,0,1-.56-.71l-4.59-12.22c-.05-.09-.1-.14-.15-.14s-.13.07-.13.21v12.08a1,1,0,0,1-.3.74.93.93,0,0,1-.7.31A.89.89,0,0,1,312.63,155.4Z"/><path class="cls-1" d="M336.54,155.4a1.1,1.1,0,0,1-.28-.74,1.55,1.55,0,0,1,.11-.46l5.43-13.77a1.67,1.67,0,0,1,.51-.71,1.14,1.14,0,0,1,.74-.25h.21a1.15,1.15,0,0,1,.75.25,1.76,1.76,0,0,1,.51.71L350,154.2a1.55,1.55,0,0,1,.11.46,1.1,1.1,0,0,1-.28.74.9.9,0,0,1-.7.31,1,1,0,0,1-.57-.17,1.16,1.16,0,0,1-.37-.49l-1.38-3.55h-7.2l-1.38,3.55a1.16,1.16,0,0,1-.37.49,1,1,0,0,1-.57.17A.88.88,0,0,1,336.54,155.4Zm6.62-12.93c-.07,0-.13.05-.17.16l-2.68,6.93H346l-2.68-6.93C343.29,142.52,343.23,142.47,343.16,142.47Z"/><path class="cls-1" d="M357.28,155.4a1.06,1.06,0,0,1-.29-.74v-9.82a1.08,1.08,0,0,1,.29-.75.9.9,0,0,1,.69-.32.94.94,0,0,1,.7.32,1.05,1.05,0,0,1,.3.75v.87a7,7,0,0,1,1.81-1.53,4.25,4.25,0,0,1,2.13-.52,3.58,3.58,0,0,1,2.06.59,3.82,3.82,0,0,1,1.31,1.62,5.51,5.51,0,0,1,.46,2.29v6.5a1,1,0,0,1-.3.74.93.93,0,0,1-.7.31.89.89,0,0,1-.69-.31,1.06,1.06,0,0,1-.29-.74v-6.27c0-1.84-.77-2.77-2.32-2.77a3.26,3.26,0,0,0-1.84.55,7.1,7.1,0,0,0-1.63,1.62v6.87a1,1,0,0,1-.3.74.93.93,0,0,1-.7.31A.89.89,0,0,1,357.28,155.4Z"/><path class="cls-1" d="M389.18,155.4a1.06,1.06,0,0,1-.29-.74V141.57h-4.32a.85.85,0,0,1-.65-.28,1,1,0,0,1-.27-.7,1,1,0,0,1,.27-.71.83.83,0,0,1,.65-.3h10.6a.87.87,0,0,1,.66.3,1,1,0,0,1,.28.71,1,1,0,0,1-.28.7.88.88,0,0,1-.66.28h-4.3v13.09a1,1,0,0,1-.3.74.93.93,0,0,1-.7.31A.89.89,0,0,1,389.18,155.4Z"/><path class="cls-1" d="M404.91,154.77a7.09,7.09,0,0,1-2.58-2.91,9.91,9.91,0,0,1,0-8.53,7,7,0,0,1,2.61-2.92,7.82,7.82,0,0,1,7.86,0,7.14,7.14,0,0,1,2.59,2.92,9.92,9.92,0,0,1,1,4.26,9.71,9.71,0,0,1-.95,4.23,7.06,7.06,0,0,1-2.63,3,7.26,7.26,0,0,1-3.91,1A7.37,7.37,0,0,1,404.91,154.77Zm6.88-1.76a5.2,5.2,0,0,0,1.9-2.21,7.31,7.31,0,0,0,.67-3.21,7.47,7.47,0,0,0-.66-3.2,5.16,5.16,0,0,0-4.85-3,5.11,5.11,0,0,0-2.94.83,5.27,5.27,0,0,0-1.9,2.21,7.28,7.28,0,0,0-.67,3.21,7.47,7.47,0,0,0,.66,3.2,5.13,5.13,0,0,0,1.92,2.25,5.35,5.35,0,0,0,2.93.79A5.11,5.11,0,0,0,411.79,153Z"/><path class="cls-1" d="M427.16,155.44a1.82,1.82,0,0,1-.5-.78l-4.17-13.77a2.15,2.15,0,0,1-.06-.44,1,1,0,0,1,.27-.7,1,1,0,0,1,.69-.28.92.92,0,0,1,.6.23,1.26,1.26,0,0,1,.38.62l3.4,12c0,.13.09.19.15.19s.11-.06.15-.19l3.43-12a1.16,1.16,0,0,1,.42-.65,1.14,1.14,0,0,1,.7-.24,1.16,1.16,0,0,1,1.13.89l3.43,12c0,.13.09.19.15.19s.1-.06.15-.19l3.4-12a1.19,1.19,0,0,1,.38-.62.9.9,0,0,1,.6-.23.94.94,0,0,1,.68.28,1,1,0,0,1,.28.7,2.15,2.15,0,0,1-.06.44l-4.18,13.77a1.73,1.73,0,0,1-.5.78,1.22,1.22,0,0,1-1.57,0,1.44,1.44,0,0,1-.48-.75l-3.26-11.07c0-.13-.09-.19-.15-.19s-.1.06-.14.19l-3.26,11.07a1.57,1.57,0,0,1-.48.75,1.21,1.21,0,0,1-.8.3A1.19,1.19,0,0,1,427.16,155.44Z"/><path class="cls-1" d="M450.06,155.4a1.05,1.05,0,0,1-.28-.74V141a1.56,1.56,0,0,1,.41-1.07,1.29,1.29,0,0,1,1-.46h.28a1.47,1.47,0,0,1,1.19.69l7.85,12.19c.08.09.13.13.17.13a.12.12,0,0,0,.09-.06.29.29,0,0,0,0-.16V140.54a1.1,1.1,0,0,1,.29-.75.9.9,0,0,1,.69-.32,1,1,0,0,1,.71.32,1.1,1.1,0,0,1,.29.75V154.2a1.48,1.48,0,0,1-.42,1.06,1.35,1.35,0,0,1-1,.45h-.26a1.37,1.37,0,0,1-.65-.17,1.54,1.54,0,0,1-.5-.45l-7.9-12.26c-.07-.09-.12-.13-.17-.13s-.05,0-.08.06a.29.29,0,0,0,0,.16v11.74a1,1,0,0,1-.3.74.95.95,0,0,1-1.4,0Z"/><path class="cls-1" d="M101,137.2l4.08-18.28,4.09,18.28a4.19,4.19,0,1,1-8.17,0Z"/><path class="cls-1" d="M87.52,133.76l9.1-13.51-3.18,16a3.27,3.27,0,1,1-5.92-2.47Z"/><path class="cls-1" d="M116.66,136.23l-3.18-16,9.11,13.51c2.63,4.51-4.58,7.51-5.93,2.47Z"/><path class="cls-1" d="M137.63,131.73a26.41,26.41,0,0,0-5.58-4.32c-1.05-.63,2.2,4.05,2.63,9.48a6.25,6.25,0,0,1-.68,3.7,5.83,5.83,0,0,1-3.63,2.5,8.52,8.52,0,0,1-3.89,0A6.11,6.11,0,0,1,124.1,142c-1,4-4.16,7.11-8.33,8.74a29.66,29.66,0,0,1-11.15,1.67,30.11,30.11,0,0,1-9.93-1.53c-4.35-1.59-7.62-4.73-8.68-8.88a6.11,6.11,0,0,1-2.38,1.09,8.52,8.52,0,0,1-3.89,0,5.83,5.83,0,0,1-3.63-2.5,6.25,6.25,0,0,1-.68-3.7c.42-5.43,3.67-10.11,2.62-9.48a26.93,26.93,0,0,0-5.58,4.32c-3.08,3.22-4.84,7.61-3.38,11.82,1.76,5.1,7.61,7.55,13.22,6.58,4.82,6.84,14,10.36,22.74,10.33S123,157,127.79,150.13c5.61,1,11.46-1.48,13.23-6.58C142.48,139.34,140.72,135,137.63,131.73Z"/><rect class="cls-1" x="32.87" y="103.21" width="99.07" height="8.49" transform="translate(-51.84 89.74) rotate(-45)"/><rect class="cls-1" x="91.62" y="70.73" width="7.2" height="8.49" transform="translate(80.9 -45.37) rotate(45)"/><rect class="cls-1" x="101.92" y="113.02" width="71.17" height="8.49" transform="translate(123.19 -62.89) rotate(45)"/><path class="cls-2" d="M105.05,22.36a70.61,70.61,0,0,0-60,107.87L90.47,84.81l-9.38-9.39L95.67,60.84l9.38,9.38,9.39-9.38L129,75.42l-9.39,9.39,45.43,45.42a70.62,70.62,0,0,0-60-107.87Zm0,30.46a8.09,8.09,0,1,1,8.09-8.08A8.08,8.08,0,0,1,105.05,52.82Z"/></svg>